<svg width="1440" height="1461" viewBox="0 0 1440 1461" fill="none" xmlns="http://www.w3.org/2000/svg">
<g filter="url(#filter0_d)">
<path fill-rule="evenodd" clip-rule="evenodd" d="M1400.01 87.076C1410.94 195.403 1407.86 362.437 1372.26 481.111C1353.84 542.529 1332.08 572.481 1317.58 583.068C1312.66 586.656 1308.91 587.904 1303.62 588.115C1296.96 588.381 1282.28 587.001 1257.63 575.331C1068.92 485.961 926.131 470.019 817.82 498.043C727.379 521.443 674.368 571.939 646.584 610.56L646.279 610.358C642.814 615.049 639.879 619.801 637.43 624.238C635.263 627.738 633.33 631.071 631.622 634.2L632.276 634.51C630.631 638.119 629.43 641.108 628.632 643.11C625.575 650.779 622.777 659.015 620.415 666.193C618.527 671.931 616.787 677.363 615.05 682.788L615.048 682.795C611.851 692.78 608.659 702.745 604.556 714.569C592.24 750.061 577.776 783.414 559.468 807.951C542.033 831.316 527.96 838.013 515.769 839.596C500.922 841.523 462.89 839.188 392.563 792.627C309.711 737.772 217.794 716.842 129.634 754.249C50.3757 787.879 1.03573 858.389 -30.2196 922.311C-93.9337 1052.62 -118.728 1231.04 -124.143 1351.26L80.4327 1356.2C85.4514 1244.76 108.677 1097.12 155.117 1002.14C178.938 953.426 200.208 936.491 210.162 932.268C210.194 932.254 210.239 932.233 210.299 932.205L210.299 932.204C212.209 931.3 228.528 923.569 273.742 953.504C365.27 1014.1 454.315 1044.03 539.894 1032.92C628.128 1021.47 687.831 969.826 725.646 919.148C762.587 869.64 784.847 813.244 798.857 772.875C803.667 759.014 808.265 744.681 811.826 733.578L811.836 733.549C813.327 728.9 814.637 724.818 815.703 721.576C817.428 716.336 818.605 712.969 819.398 710.856C826.808 703.269 840.831 692.697 865.07 686.425C906.743 675.643 996.876 672.771 1161.79 750.868C1207.87 772.69 1256.08 785.203 1305.25 783.241C1355.79 781.224 1400.8 764.124 1438.34 736.725C1508.74 685.339 1546.67 602.761 1568.82 528.943C1614.35 377.145 1615.88 182.878 1603.67 61.8649L1400.01 87.076ZM819.074 711.191C817.897 713.446 815.91 716.882 813.041 720.767L809.58 718.476L812.377 719.8C812.717 719.179 814.677 715.759 819.074 711.191Z" fill="#399CB4"/>
<path d="M1372.26 481.111L1374.66 481.829L1374.66 481.829L1372.26 481.111ZM1400.01 87.076L1399.71 84.595L1397.28 84.8952L1397.53 87.3269L1400.01 87.076ZM1317.58 583.068L1319.05 585.087L1319.05 585.087L1317.58 583.068ZM1303.62 588.115L1303.52 585.617L1303.52 585.617L1303.62 588.115ZM1257.63 575.331L1256.56 577.59L1256.56 577.59L1257.63 575.331ZM817.82 498.043L818.447 500.463L818.447 500.463L817.82 498.043ZM646.584 610.56L645.204 612.645L647.209 613.972L648.614 612.02L646.584 610.56ZM646.279 610.358L647.659 608.273L645.678 606.962L644.268 608.872L646.279 610.358ZM637.43 624.238L639.556 625.555L639.589 625.501L639.619 625.446L637.43 624.238ZM631.622 634.2L629.428 633.002L628.159 635.326L630.552 636.459L631.622 634.2ZM632.276 634.51L634.551 635.547L635.573 633.305L633.346 632.251L632.276 634.51ZM628.632 643.11L626.31 642.184L626.31 642.184L628.632 643.11ZM620.415 666.193L622.79 666.975L622.79 666.975L620.415 666.193ZM615.05 682.788L617.426 683.566L617.429 683.558L617.431 683.55L615.05 682.788ZM615.048 682.795L612.672 682.016L612.67 682.024L612.667 682.032L615.048 682.795ZM604.556 714.569L602.194 713.75L602.194 713.75L604.556 714.569ZM559.468 807.951L557.464 806.456L557.464 806.456L559.468 807.951ZM515.769 839.596L515.447 837.116L515.447 837.116L515.769 839.596ZM392.563 792.627L393.943 790.542L393.943 790.542L392.563 792.627ZM129.634 754.249L130.611 756.55L130.611 756.55L129.634 754.249ZM-30.2196 922.311L-32.4655 921.213L-32.4655 921.213L-30.2196 922.311ZM-124.143 1351.26L-126.64 1351.15L-126.755 1353.7L-124.203 1353.76L-124.143 1351.26ZM80.4327 1356.2L80.3724 1358.7L82.82 1358.75L82.9302 1356.31L80.4327 1356.2ZM155.117 1002.14L152.871 1001.05L152.871 1001.05L155.117 1002.14ZM210.162 932.268L209.186 929.966L209.185 929.967L210.162 932.268ZM210.299 932.205L209.242 929.939L209.236 929.942L209.229 929.945L210.299 932.205ZM210.299 932.204L211.356 934.47L211.363 934.467L211.37 934.464L210.299 932.204ZM273.742 953.504L275.122 951.42L275.122 951.42L273.742 953.504ZM539.894 1032.92L540.216 1035.4L540.216 1035.4L539.894 1032.92ZM725.646 919.148L727.649 920.643L727.649 920.643L725.646 919.148ZM798.857 772.875L796.495 772.055L796.495 772.055L798.857 772.875ZM811.826 733.578L809.447 732.81L809.446 732.814L811.826 733.578ZM811.836 733.549L814.215 734.317L814.216 734.313L811.836 733.549ZM815.703 721.576L813.328 720.795L813.328 720.795L815.703 721.576ZM819.398 710.856L817.61 709.109L817.242 709.485L817.058 709.978L819.398 710.856ZM865.07 686.425L865.696 688.846L865.696 688.846L865.07 686.425ZM1161.79 750.868L1162.86 748.608L1162.86 748.608L1161.79 750.868ZM1305.25 783.241L1305.15 780.743L1305.15 780.743L1305.25 783.241ZM1438.34 736.725L1436.86 734.706L1436.86 734.706L1438.34 736.725ZM1568.82 528.943L1566.42 528.225L1566.42 528.225L1568.82 528.943ZM1603.67 61.8649L1606.16 61.6141L1605.91 59.0697L1603.37 59.3838L1603.67 61.8649ZM813.041 720.767L811.661 722.852L813.641 724.163L815.052 722.252L813.041 720.767ZM819.074 711.191L821.29 712.348L817.273 709.457L819.074 711.191ZM809.58 718.476L810.65 716.216L808.2 720.56L809.58 718.476ZM812.377 719.8L811.307 722.06L813.441 723.07L814.572 720.998L812.377 719.8ZM1374.66 481.829C1410.38 362.723 1413.44 195.328 1402.5 86.8252L1397.53 87.3269C1408.43 195.479 1405.33 362.151 1369.87 480.393L1374.66 481.829ZM1319.05 585.087C1334.22 574.016 1356.18 543.424 1374.66 481.829L1369.87 480.393C1351.5 541.635 1329.94 570.946 1316.1 581.048L1319.05 585.087ZM1303.72 590.613C1309.53 590.381 1313.75 588.954 1319.05 585.087L1316.1 581.048C1311.57 584.357 1308.29 585.426 1303.52 585.617L1303.72 590.613ZM1256.56 577.59C1281.48 589.39 1296.56 590.898 1303.72 590.613L1303.52 585.617C1297.35 585.863 1283.08 584.613 1258.7 573.071L1256.56 577.59ZM818.447 500.463C925.99 472.637 1068.16 488.366 1256.56 577.59L1258.7 573.071C1069.69 483.557 926.272 467.4 817.194 495.622L818.447 500.463ZM648.614 612.02C676.118 573.788 728.665 523.693 818.447 500.463L817.194 495.622C726.094 519.194 672.619 570.09 644.555 609.1L648.614 612.02ZM644.898 612.442L645.204 612.645L647.964 608.476L647.659 608.273L644.898 612.442ZM639.619 625.446C642.025 621.086 644.902 616.429 648.289 611.843L644.268 608.872C640.726 613.668 637.732 618.516 635.241 623.031L639.619 625.446ZM633.816 635.398C635.503 632.309 637.412 629.016 639.556 625.555L635.305 622.922C633.113 626.46 631.158 629.833 629.428 633.002L633.816 635.398ZM633.346 632.251L632.692 631.941L630.552 636.459L631.206 636.769L633.346 632.251ZM630.955 644.035C631.748 642.044 632.932 639.1 634.551 635.547L630.002 633.473C628.331 637.138 627.112 640.171 626.31 642.184L630.955 644.035ZM622.79 666.975C625.148 659.807 627.927 651.63 630.955 644.035L626.31 642.184C623.223 649.927 620.405 658.224 618.04 665.412L622.79 666.975ZM617.431 683.55C619.169 678.124 620.905 672.702 622.79 666.975L618.04 665.412C616.148 671.161 614.406 676.601 612.669 682.026L617.431 683.55ZM617.424 683.573L617.426 683.566L612.674 682.01L612.672 682.016L617.424 683.573ZM606.918 715.389C611.032 703.533 614.232 693.541 617.429 683.557L612.667 682.032C609.47 692.018 606.287 701.958 602.194 713.75L606.918 715.389ZM561.471 809.446C580.015 784.594 594.579 750.945 606.918 715.389L602.194 713.75C589.9 749.176 575.537 782.235 557.464 806.456L561.471 809.446ZM516.091 842.075C529.142 840.381 543.763 833.178 561.471 809.446L557.464 806.456C540.303 829.454 526.779 835.645 515.447 837.116L516.091 842.075ZM391.183 794.711C461.788 841.457 500.427 844.108 516.091 842.075L515.447 837.116C501.417 838.938 463.992 836.919 393.943 790.542L391.183 794.711ZM130.611 756.55C217.759 719.573 308.782 740.155 391.183 794.711L393.943 790.542C310.641 735.389 217.829 714.112 128.658 751.948L130.611 756.55ZM-27.9737 923.409C3.17898 859.698 52.1709 789.833 130.611 756.55L128.658 751.948C48.5805 785.925 -1.10753 857.081 -32.4655 921.213L-27.9737 923.409ZM-121.645 1351.37C-116.236 1231.27 -91.4639 1053.26 -27.9737 923.409L-32.4655 921.213C-96.4035 1051.97 -121.22 1230.8 -126.64 1351.15L-121.645 1351.37ZM80.493 1353.7L-124.082 1348.76L-124.203 1353.76L80.3724 1358.7L80.493 1353.7ZM152.871 1001.05C106.207 1096.48 82.9594 1244.52 77.9352 1356.08L82.9302 1356.31C87.9434 1244.99 111.147 1097.76 157.362 1003.24L152.871 1001.05ZM209.185 929.967C198.416 934.536 176.797 952.113 152.871 1001.05L157.362 1003.24C181.079 954.739 202 938.447 211.138 934.569L209.185 929.967ZM209.229 929.945C209.214 929.952 209.201 929.958 209.19 929.964C209.179 929.969 209.171 929.972 209.166 929.975C209.16 929.978 209.159 929.978 209.161 929.977C209.163 929.976 209.172 929.972 209.186 929.966L211.138 934.57C211.229 934.531 211.333 934.481 211.369 934.464L209.229 929.945ZM209.243 929.939L209.242 929.939L211.356 934.47L211.356 934.47L209.243 929.939ZM275.122 951.42C252.337 936.334 236.626 930.598 226.201 928.825C215.673 927.034 210.598 929.296 209.229 929.945L211.37 934.464C211.91 934.208 215.949 932.153 225.362 933.754C234.877 935.373 249.933 940.739 272.362 955.589L275.122 951.42ZM539.572 1030.44C454.815 1041.45 366.378 1011.84 275.122 951.42L272.362 955.589C364.162 1016.37 453.815 1046.62 540.216 1035.4L539.572 1030.44ZM723.642 917.653C686.083 967.987 626.925 1019.1 539.572 1030.44L540.216 1035.4C629.332 1023.83 689.578 971.665 727.649 920.643L723.642 917.653ZM796.495 772.055C782.509 812.356 760.349 868.459 723.642 917.653L727.649 920.643C764.824 870.822 787.186 814.132 801.218 773.694L796.495 772.055ZM809.446 732.814C805.883 743.921 801.294 758.227 796.495 772.055L801.218 773.694C806.04 759.802 810.646 745.441 814.207 734.342L809.446 732.814ZM809.456 732.781L809.447 732.81L814.205 734.346L814.215 734.317L809.456 732.781ZM813.328 720.795C812.258 724.047 810.946 728.139 809.455 732.785L814.216 734.313C815.709 729.66 817.015 725.588 818.078 722.357L813.328 720.795ZM817.058 709.978C816.247 712.138 815.057 715.542 813.328 720.795L818.078 722.358C819.798 717.13 820.963 713.801 821.739 711.734L817.058 709.978ZM864.444 684.005C839.746 690.395 825.325 701.209 817.61 709.109L821.187 712.603C828.29 705.33 841.916 694.998 865.696 688.846L864.444 684.005ZM1162.86 748.608C997.637 670.365 906.881 673.025 864.444 684.005L865.696 688.846C906.604 678.261 996.115 675.177 1160.72 753.127L1162.86 748.608ZM1305.15 780.743C1256.48 782.685 1208.67 770.303 1162.86 748.608L1160.72 753.127C1207.07 775.078 1255.69 787.721 1305.35 785.739L1305.15 780.743ZM1436.86 734.706C1399.7 761.829 1355.16 778.747 1305.15 780.743L1305.35 785.739C1356.41 783.701 1401.89 766.419 1439.81 738.745L1436.86 734.706ZM1566.42 528.225C1544.33 601.865 1506.61 683.803 1436.86 734.706L1439.81 738.745C1510.88 686.875 1549.02 603.657 1571.21 529.661L1566.42 528.225ZM1601.19 62.1158C1613.37 182.953 1611.82 376.859 1566.42 528.225L1571.21 529.661C1616.87 377.431 1618.38 182.802 1606.16 61.6141L1601.19 62.1158ZM1400.32 89.5571L1603.98 64.346L1603.37 59.3838L1399.71 84.595L1400.32 89.5571ZM815.052 722.252C818.01 718.247 820.063 714.698 821.29 712.348L816.858 710.034C815.73 712.194 813.81 715.518 811.03 719.282L815.052 722.252ZM808.2 720.56L811.661 722.852L814.421 718.683L810.96 716.391L808.2 720.56ZM813.447 717.541L810.65 716.216L808.51 720.735L811.307 722.06L813.447 717.541ZM817.273 709.457C812.701 714.207 810.614 717.813 810.183 718.602L814.572 720.998C814.82 720.544 816.654 717.311 820.875 712.924L817.273 709.457Z" fill="black" fill-opacity="0.6"/>
</g>
<defs>
<filter id="filter0_d" x="-344.531" y="0.374878" width="2187.1" height="1460.51" filterUnits="userSpaceOnUse" color-interpolation-filters="sRGB">
<feFlood flood-opacity="0" result="BackgroundImageFix"/>
<feColorMatrix in="SourceAlpha" type="matrix" values="0 0 0 0 0 0 0 0 0 0 0 0 0 0 0 0 0 0 127 0"/>
<feOffset dy="4"/>
<feGaussianBlur stdDeviation="2"/>
<feColorMatrix type="matrix" values="0 0 0 0 0 0 0 0 0 0 0 0 0 0 0 0 0 0 0.25 0"/>
<feBlend mode="normal" in2="BackgroundImageFix" result="effect1_dropShadow"/>
<feBlend mode="normal" in="SourceGraphic" in2="effect1_dropShadow" result="shape"/>
</filter>
</defs>
</svg>
